<svg preserveAspectRatio="xMidYMid meet" viewBox="0 0 100 80" xmlns="http://www.w3.org/2000/svg">
	<!-- oldie above w:130.82 and H:79.34 -->
	<path d="M87.355,26.411c0-8.079-6.551-14.628-14.629-14.628c-2.665,0-5.163-0.508-7.313,0.738c-2.153-1.246-4.65-0.738-7.316-0.738c-8.079,0-14.628,6.549-14.628,14.628c0,4.48,2.108,8.775,5.635,11.533c4.55,3.786,10.393,5.866,16.309,5.866c6.189,0,11.864-2.196,16.291-5.853C85.141,35.28,87.355,31.105,87.355,26.411z" fill="#177595"/>
	<path d="M73.008,17.2c-1.566,0-3.108,0.413-4.459,1.195l-0.945,0.547c2.824,1.855,4.689,5.047,4.689,8.677c0,4.981-3.508,9.137-8.187,10.145c0.527,0.042,1.056,0.066,1.589,0.066c4.614,0,9.109-1.615,12.661-4.548l0.063-0.052l0.064-0.05c2.196-1.71,3.455-4.279,3.455-7.05C81.938,21.205,77.932,17.2,73.008,17.2z" fill="#FFFFFF"/>
	<path d="M75.904,26.521c0,0,1.559,1.2,2.221,1.2c0.663,0,1.2-0.538,1.2-1.2c0-0.664-0.537-1.2-1.2-1.2C77.463,25.322,75.904,26.521,75.904,26.521z" fill="#177595"/>
	<path d="M74.125,29.871c0,0,0.254,1.951,0.722,2.42c0.469,0.468,1.229,0.468,1.698,0c0.468-0.469,0.468-1.228,0-1.698C76.076,30.125,74.125,29.871,74.125,29.871z" fill="#177595"/>
	<path d="M74.125,23.171c0,0,1.951-0.253,2.42-0.722c0.468-0.468,0.468-1.229,0-1.697c-0.469-0.468-1.229-0.468-1.698,0C74.379,21.22,74.125,23.171,74.125,23.171z" fill="#177595"/>
	<path d="M71.481,9.859c2.197-0.04,4.927,0.465,8.786,1.414c-1.331-2.003-3.4-3.522-5.933-4.095c-2.689-0.608-5.364-0.029-7.492,1.384V2.385h-2.294v6.177c-2.128-1.413-4.803-1.992-7.492-1.384c-2.533,0.573-4.601,2.092-5.932,4.095c3.865-0.951,6.596-1.457,8.797-1.416c-4.393,0.923-7.692,4.815-7.698,9.481c3.578-3.544,8.255-5.969,13.473-6.742c5.217,0.773,9.894,3.198,13.47,6.742C79.161,14.676,75.868,10.788,71.481,9.859z" fill="#A0C6D3"/>
</svg>
